<svg id="Ebene_1" data-name="Ebene 1" xmlns="http://www.w3.org/2000/svg" xmlns:xlink="http://www.w3.org/1999/xlink" width="799.91352" height="233.48211" viewBox="0 0 799.91352 233.48211"><defs><style>.cls-1{fill:url(#Unbenannter_Verlauf_18);}.cls-2{fill:url(#Unbenannter_Verlauf_18-2);}.cls-3{fill:url(#Unbenannter_Verlauf_18-3);}.cls-4{fill:url(#Unbenannter_Verlauf_30);}.cls-5{fill:url(#Unbenannter_Verlauf_40);}.cls-6{fill:url(#Unbenannter_Verlauf_40-2);}.cls-7{fill:url(#Unbenannter_Verlauf_38);}.cls-8{fill:url(#Unbenannter_Verlauf_38-2);}.cls-9{fill:url(#Unbenannter_Verlauf_38-3);}.cls-10{fill:url(#Unbenannter_Verlauf_40-3);}.cls-11{fill:url(#Unbenannter_Verlauf_40-4);}.cls-12{fill:url(#Unbenannter_Verlauf_45);}.cls-13{fill:url(#Unbenannter_Verlauf_45-2);}.cls-14{fill:url(#Unbenannter_Verlauf_47);}.cls-15{fill:url(#Unbenannter_Verlauf_49);}.cls-16{fill:url(#Unbenannter_Verlauf_18-4);}.cls-17{fill:url(#Unbenannter_Verlauf_18-5);}.cls-18{fill:url(#Unbenannter_Verlauf_18-6);}</style><linearGradient id="Unbenannter_Verlauf_18" x1="-710.35619" y1="-456.28396" x2="-709.83811" y2="-456.28396" gradientTransform="matrix(261.83044, -190.23096, -190.23096, -261.83044, 99822.22378, -254410.43651)" gradientUnits="userSpaceOnUse"><stop offset="0" stop-color="#656565"/><stop offset="0.21351" stop-color="#565656"/><stop offset="0.62383" stop-color="#2e2e2e"/><stop offset="0.75716" stop-color="#202020"/><stop offset="1" stop-color="#202020"/></linearGradient><linearGradient id="Unbenannter_Verlauf_18-2" x1="-709.78973" y1="-456.55898" x2="-709.27165" y2="-456.55898" gradientTransform="matrix(261.77997, -190.19429, -190.19429, -261.77997, 99386.85005, -254288.32651)" xlink:href="#Unbenannter_Verlauf_18"/><linearGradient id="Unbenannter_Verlauf_18-3" x1="-708.82142" y1="-457.2902" x2="-708.30344" y2="-457.2902" gradientTransform="matrix(261.83038, -190.2309, -190.2309, -261.83038, 98591.16514, -254351.23886)" xlink:href="#Unbenannter_Verlauf_18"/><linearGradient id="Unbenannter_Verlauf_30" x1="-716.93038" y1="-435.46938" x2="-716.4124" y2="-435.46938" gradientTransform="matrix(158.01579, 0, 0, -158.01579, 113315.45115, -68647.22117)" gradientUnits="userSpaceOnUse"><stop offset="0" stop-color="#8ca4aa"/><stop offset="1" stop-color="#677f85"/></linearGradient><linearGradient id="Unbenannter_Verlauf_40" x1="-719.40565" y1="-461.01164" x2="-718.88829" y2="-461.01164" gradientTransform="matrix(605.52832, 0, 0, -605.52832, 435719.98176, -278999.78277)" gradientUnits="userSpaceOnUse"><stop offset="0" stop-color="#c6dee4"/><stop offset="0.05" stop-color="#c6dee4"/><stop offset="0.5" stop-color="#8ca4aa"/><stop offset="0.95" stop-color="#c6dee4"/><stop offset="1" stop-color="#c6dee4"/></linearGradient><linearGradient id="Unbenannter_Verlauf_40-2" x1="-719.40598" y1="-460.98787" x2="-718.8883" y2="-460.98787" gradientTransform="matrix(605.52832, 0, 0, -605.52832, 435719.98176, -278969.91363)" xlink:href="#Unbenannter_Verlauf_40"/><linearGradient id="Unbenannter_Verlauf_38" x1="-719.18715" y1="-435.47558" x2="-718.66907" y2="-435.47558" gradientTransform="matrix(158.70937, 0, 0, -158.70937, 114553.50691, -68973.7082)" gradientUnits="userSpaceOnUse"><stop offset="0" stop-color="#c6dee4"/><stop offset="0.05" stop-color="#c6dee4"/><stop offset="1" stop-color="#677f85"/></linearGradient><linearGradient id="Unbenannter_Verlauf_38-2" x1="-719.18715" y1="-435.62184" x2="-718.66907" y2="-435.62184" xlink:href="#Unbenannter_Verlauf_38"/><linearGradient id="Unbenannter_Verlauf_38-3" x1="-719.18716" y1="-435.76815" x2="-718.66908" y2="-435.76815" xlink:href="#Unbenannter_Verlauf_38"/><linearGradient id="Unbenannter_Verlauf_40-3" x1="-719.93294" y1="-457.15596" x2="-719.41535" y2="-457.15596" gradientTransform="matrix(423.95023, 0, 0, -423.95023, 305697.34632, -193655.5482)" xlink:href="#Unbenannter_Verlauf_40"/><linearGradient id="Unbenannter_Verlauf_40-4" x1="-719.93294" y1="-457.122" x2="-719.41486" y2="-457.122" gradientTransform="matrix(423.95023, 0, 0, -423.95023, 305697.34632, -193625.67418)" xlink:href="#Unbenannter_Verlauf_40"/><linearGradient id="Unbenannter_Verlauf_45" x1="-718.94591" y1="-424.01575" x2="-718.42783" y2="-424.01575" gradientTransform="matrix(118.66435, 0, 0, -118.66435, 85735.01754, -50151.99346)" gradientUnits="userSpaceOnUse"><stop offset="0" stop-color="#8ca4aa"/><stop offset="0.95" stop-color="#c6dee4"/><stop offset="1" stop-color="#c6dee4"/></linearGradient><linearGradient id="Unbenannter_Verlauf_45-2" x1="-715.95154" y1="-424.04603" x2="-715.43371" y2="-424.04603" gradientTransform="matrix(118.74775, 0, 0, -118.74775, 85057.10396, -50190.69313)" xlink:href="#Unbenannter_Verlauf_45"/><linearGradient id="Unbenannter_Verlauf_47" x1="-721.12294" y1="-424.04655" x2="-720.6052" y2="-424.04655" gradientTransform="matrix(118.74913, 0, 0, -118.74913, 86332.29704, -50191.34218)" gradientUnits="userSpaceOnUse"><stop offset="0" stop-color="#c6dee4"/><stop offset="0.05" stop-color="#c6dee4"/><stop offset="1" stop-color="#8ca4aa"/></linearGradient><linearGradient id="Unbenannter_Verlauf_49" x1="-720.82628" y1="-435.23084" x2="-720.30831" y2="-435.23084" gradientTransform="matrix(156.9325, 0, 0, -156.9325, 113811.17888, -68138.05614)" gradientUnits="userSpaceOnUse"><stop offset="0" stop-color="#677f85"/><stop offset="1" stop-color="#8ca4aa"/></linearGradient><linearGradient id="Unbenannter_Verlauf_18-4" x1="-706.92627" y1="-454.47391" x2="-706.40819" y2="-454.47391" gradientTransform="matrix(217.07974, -157.71767, -157.71767, -217.07974, 81906.46259, -209959.1177)" xlink:href="#Unbenannter_Verlauf_18"/><linearGradient id="Unbenannter_Verlauf_18-5" x1="-705.18497" y1="-449.37596" x2="-704.66689" y2="-449.37596" gradientTransform="matrix(173.42125, -125.99792, -125.99792, -173.42125, 66255.16282, -166583.92814)" xlink:href="#Unbenannter_Verlauf_18"/><linearGradient id="Unbenannter_Verlauf_18-6" x1="-707.31384" y1="-454.29918" x2="-706.79576" y2="-454.29918" gradientTransform="matrix(218.45, -158.71321, -158.71321, -218.45, 82653.08527, -211297.05034)" xlink:href="#Unbenannter_Verlauf_18"/></defs><title>nreach_Logo_Standard</title><path class="cls-1" d="M680.83216,0H660.03266V233.48212h20.79949V163.5412h0a49.14073,49.14073,0,1,1,98.28146,0v69.94092h20.80032V163.5412a69.897,69.897,0,0,0-119.08177-49.70675V0"/><path class="cls-2" d="M403.41552,163.5412h0a49.51235,49.51235,0,0,1,99.0219,0h0a49.51095,49.51095,0,1,1-99.0219,0h0M522.86707,93.60079H502.43742v20.54153h0a69.93517,69.93517,0,1,0,10.20113,85.83087,69.83619,69.83619,0,0,0,59.62892,33.50893V212.42124c-27.09594,0-49.4004-22.04391-49.4004-49.13984V93.60079"/><path class="cls-3" d="M20.7995,93.60079H0V233.48212H20.7995V163.5412h0a49.14073,49.14073,0,0,1,98.28147,0v69.94092h20.8003V163.5412A69.89717,69.89717,0,0,0,20.7995,113.83445h0V93.60079"/><path class="cls-4" d="M70.39476,122.54609a41.27264,41.27264,0,1,0,1.78534,82.50712c.41189-.01771.82391-.03943,1.23493-.07134l.00523-.00025c.072-.00543.14409-.01065.21611-.01644l.00645-.00051c.10844-.0082.21675-.01783.32514-.02656l.00945-.001A41.36273,41.36273,0,0,0,110.417,173.87942h-5.32946a36.14031,36.14031,0,0,1-31.73017,25.933l-.006.00025q-.18464.016-.36973.02808l-.01467.00126-.07984.00531a34.59923,34.59923,0,0,1-17.5202-3.18081,36.08483,36.08483,0,0,1-21.08556-32.84794h0A36.09025,36.09025,0,0,1,73.03611,127.8005l.00674.00051a36.53908,36.53908,0,0,1,27.1838,15.66068,35.95722,35.95722,0,0,1,4.70769,9.78084h5.349a41.23141,41.23141,0,0,0-39.88854-30.69643h0"/><path class="cls-5" d="M412.76381,153.24253H99.48531a30.69643,30.69643,0,0,1,1.38821,5.16182l310.89689-.00253a41.00078,41.00078,0,0,1,.98537-5.15929"/><path class="cls-6" d="M100.96078,168.71685a30.71652,30.71652,0,0,1-1.29211,5.16258H412.75489a41.015,41.015,0,0,1-.98531-5.15929l-310.80881-.003"/><path class="cls-7" d="M452.72119,122.28908q-1.72729.00121-3.44941.14293l-.00519.00051a41.37009,41.37009,0,0,0-36.50278,30.81h0a39.62667,39.62667,0,0,0-.99341,5.15929h5.20239A36.11992,36.11992,0,0,1,482.304,142.84274a35.95186,35.95186,0,0,1,5.03573,10.39978h5.34762a41.43634,41.43634,0,0,0-28.50548-29.335l-.00367-.001c-.20614-.05957-.41024-.13315-.6211-.1743a15.92453,15.92453,0,0,1-1.67535-.41866,41.53366,41.53366,0,0,0-9.16061-1.02452h0"/><path class="cls-8" d="M488.46852,158.394a36.42187,36.42187,0,0,1,.36642,4.99283l.00013.01923.00032.15507h0l-.00032.15507-.00013.01821a36.41877,36.41877,0,0,1-.36529,4.98575H493.66a41.56022,41.56022,0,0,0,.33341-4.99258V163.723c.00025-.05388.00038-.108.00038-.1619h0q0-.08158-.00038-.16316v-.00253a41.67573,41.67573,0,0,0-.33423-5.00068h.01284l-.00006-.00051-5.20343-.00025"/><path class="cls-9" d="M416.976,168.72014h-5.2064a41.015,41.015,0,0,0,.98531,5.15929h.00813a41.36623,41.36623,0,0,0,36.39549,30.80167l.00171.00025a41.11017,41.11017,0,0,0,13.36817-1.025h.00032c1.1116-.26794,2.21244-.589,3.2958-.95445l.00063-.00025a39.76508,39.76508,0,0,0,7.67955-3.49273l.00342-.00177a41.44159,41.44159,0,0,0,19.17929-25.32769h-5.34762a36.1436,36.1436,0,0,1-31.20787,25.63606h-.00044q-1.70045.15818-3.41027.15886A36.13746,36.13746,0,0,1,416.976,168.72014"/><path class="cls-10" d="M701.04768,153.24253H695.603l-.002.00658-5.36008.00152.00215-.00809H481.90766a30.686,30.686,0,0,1,1.33713,5.15119h-1.63221l6.85595.00025,5.20343.00025,205.99.00759a30.67135,30.67135,0,0,1,1.38576-5.15929"/><path class="cls-11" d="M699.57546,168.72014H483.24478a30.68642,30.68642,0,0,1-1.33991,5.15929h218.961a30.68472,30.68472,0,0,1-1.29039-5.15929"/><path class="cls-12" d="M452.72119,132.60664a30.95433,30.95433,0,0,0,0,61.90867h0a20.07266,20.07266,0,0,0,2.80725-.12648,31.03925,31.03925,0,0,0,26.37308-20.5094h.00335a30.68642,30.68642,0,0,0,1.33991-5.15929h-5.24726a25.79643,25.79643,0,0,1-51.07141-5.159h0a25.80218,25.80218,0,0,1,51.08021-5.16738h5.23847a30.686,30.686,0,0,0-1.33713-5.15119h-.00373a31.03653,31.03653,0,0,0-25.606-20.43048l-.00506-.00051a30.55106,30.55106,0,0,0-3.57166-.2049"/><path class="cls-13" d="M70.39476,132.86543a30.95354,30.95354,0,1,0,2.74769,61.78649h.00032c.103-.00889.20591-.01881.30881-.02884l.00444-.00025a31.27924,31.27924,0,0,0,26.20875-20.7434h.00389a30.71652,30.71652,0,0,0,1.29211-5.16258H95.72555a25.79781,25.79781,0,0,1-51.12666-4.89822h0a25.799,25.799,0,0,1,51.0218-5.41428h5.25282a30.69643,30.69643,0,0,0-1.38821-5.16182h-.00225a31.29055,31.29055,0,0,0-26.45529-20.2663h-.00085c-.10052-.0086-.2-.01644-.30075-.024l-.00926-.00051c-.02374-.00188-.2859-.01577-.30631-.0215q-1.0066-.06453-2.01583-.06476"/><path class="cls-14" d="M730.14225,132.86543a31.03115,31.03115,0,0,0-29.0923,20.3771h-.00228a30.67135,30.67135,0,0,0-1.38576,5.15929h5.25364a25.79873,25.79873,0,0,1,51.02256,5.41681h0a25.79873,25.79873,0,0,1-51.12666,4.90151h-5.236a30.68472,30.68472,0,0,0,1.29039,5.15929h.004A31.035,31.035,0,0,0,726.463,194.55553q.08.00983.16019.01872c.20174.023.417.053.62255.06425a30.95354,30.95354,0,1,0,2.89655-61.77308"/><path class="cls-15" d="M730.14225,122.54609a41.64912,41.64912,0,0,0-34.24889,18.26466,41.1822,41.1822,0,0,0-5.65,12.43178h0l-.0024.00809,5.36008-.00152.002-.00658h-.00038A36.19787,36.19787,0,0,1,719.8109,129.205l.00032-.00025a36.10159,36.10159,0,0,1,46.44529,34.6139h0a36.11981,36.11981,0,0,1-70.80518,10.06788l-5.33927-.00076a41.29081,41.29081,0,1,0,40.0302-51.33966"/><path class="cls-16" d="M225.46936,93.60079a70.105,70.105,0,0,0-49.36122,20.2152V93.60079H155.3077v67.71809h0c-.02251.73791-.03859,1.47885-.03859,2.22258v69.94067h21.06007V163.54145h0a49.19551,49.19551,0,0,1,49.14019-49.1401V93.60079"/><path class="cls-17" d="M642.05408,93.60129a69.94041,69.94041,0,1,0,0,139.88082V212.68231a49.19674,49.19674,0,0,1-49.14111-49.1401h0a49.19647,49.19647,0,0,1,49.14111-49.14111V93.60129"/><path class="cls-18" d="M251.83564,153.14193c4.79093-22.32445,24.67819-38.38768,48.41186-38.38768,23.73288,0,43.60967,16.06475,48.40143,38.38768H251.83564m48.41186-59.54114a69.94613,69.94613,0,0,0-69.75009,64.73964l-.00161,10.38106a69.95473,69.95473,0,0,0,133.4086,23.83568l-23.63641.10448a49.4913,49.4913,0,0,1-88.42272-18.7199H369.42045a70.5311,70.5311,0,0,0,.76766-10.40028q0-2.60684-.18729-5.16637a69.94715,69.94715,0,0,0-69.75331-64.77429"/></svg>