<svg id="Ebene_1" data-name="Ebene 1" xmlns="http://www.w3.org/2000/svg" xmlns:xlink="http://www.w3.org/1999/xlink" width="250" height="250" viewBox="0 0 250 250"><defs><style>.cls-1{fill:url(#Unbenannter_Verlauf_40);}.cls-2{fill:url(#Unbenannter_Verlauf_40-2);}.cls-3{fill:url(#Unbenannter_Verlauf_38);}.cls-4{fill:url(#Unbenannter_Verlauf_38-2);}.cls-5{fill:url(#Unbenannter_Verlauf_38-3);}.cls-6{fill:url(#Unbenannter_Verlauf_40-3);}.cls-7{fill:url(#Unbenannter_Verlauf_40-4);}.cls-8{fill:url(#Unbenannter_Verlauf_45);}</style><linearGradient id="Unbenannter_Verlauf_40" x1="-1124.22" y1="-499.28" x2="-1122.75" y2="-499.28" gradientTransform="matrix(605.53, 0, 0, -605.53, 679868.26, -302224.33)" gradientUnits="userSpaceOnUse"><stop offset="0" stop-color="#c6dee4"/><stop offset="0.05" stop-color="#c6dee4"/><stop offset="0.5" stop-color="#8ca4aa"/><stop offset="0.95" stop-color="#c6dee4"/><stop offset="1" stop-color="#c6dee4"/></linearGradient><linearGradient id="Unbenannter_Verlauf_40-2" x1="-1124.23" y1="-499.3" x2="-1122.75" y2="-499.3" gradientTransform="matrix(605.53, 0, 0, -605.53, 679868.26, -302194.46)" xlink:href="#Unbenannter_Verlauf_40"/><linearGradient id="Unbenannter_Verlauf_38" x1="-1123.05" y1="-473.49" x2="-1121.57" y2="-473.49" gradientTransform="matrix(158.71, 0, 0, -158.71, 178246.92, -75089.13)" gradientUnits="userSpaceOnUse"><stop offset="0" stop-color="#c6dee4"/><stop offset="0.05" stop-color="#c6dee4"/><stop offset="1" stop-color="#677f85"/></linearGradient><linearGradient id="Unbenannter_Verlauf_38-2" x1="-1123.05" y1="-473.91" x2="-1121.57" y2="-473.91" xlink:href="#Unbenannter_Verlauf_38"/><linearGradient id="Unbenannter_Verlauf_38-3" x1="-1123.05" y1="-474.33" x2="-1121.57" y2="-474.33" xlink:href="#Unbenannter_Verlauf_38"/><linearGradient id="Unbenannter_Verlauf_40-3" x1="-1123.49" y1="-495.41" x2="-1122.02" y2="-495.41" gradientTransform="matrix(423.95, 0, 0, -423.95, 476512.45, -209927.3)" xlink:href="#Unbenannter_Verlauf_40"/><linearGradient id="Unbenannter_Verlauf_40-4" x1="-1123.49" y1="-495.45" x2="-1122.02" y2="-495.45" gradientTransform="matrix(423.95, 0, 0, -423.95, 476512.45, -209897.42)" xlink:href="#Unbenannter_Verlauf_40"/><linearGradient id="Unbenannter_Verlauf_45" x1="-1122.65" y1="-462.3" x2="-1121.18" y2="-462.3" gradientTransform="matrix(118.66, 0, 0, -118.66, 133255.62, -54734.06)" gradientUnits="userSpaceOnUse"><stop offset="0" stop-color="#8ca4aa"/><stop offset="0.95" stop-color="#c6dee4"/><stop offset="1" stop-color="#c6dee4"/></linearGradient></defs><title>nreach_Favicon</title><path class="cls-1" d="M11.18,95.22h-892.9a87.49,87.49,0,0,1,4,14.71H8.35a116.86,116.86,0,0,1,2.81-14.7"/><path class="cls-2" d="M-877.51,139.33A87.55,87.55,0,0,1-881.2,154H11.15a116.9,116.9,0,0,1-2.81-14.7H-877.51"/><path class="cls-3" d="M125.06,7q-4.92,0-9.83.41h0a117.91,117.91,0,0,0-104,87.81h0a112.94,112.94,0,0,0-2.83,14.7H23.17A102.82,102.82,0,0,1,125.06,21.7a104.29,104.29,0,0,1,84.32,43.88,102.47,102.47,0,0,1,14.35,29.64H239a118.1,118.1,0,0,0-81.25-83.61h0c-.59-.17-1.17-.38-1.77-.5a45.39,45.39,0,0,1-4.78-1.19A118.38,118.38,0,0,0,125.06,7h0"/><path class="cls-4" d="M226.95,109.91a103.81,103.81,0,0,1,1,14.23v.05c0,.15,0,.3,0,.44h0c0,.15,0,.29,0,.44v.05a103.8,103.8,0,0,1-1,14.21h14.79a118.45,118.45,0,0,0,1-14.23h0c0-.15,0-.31,0-.46h0q0-.23,0-.47h0a118.78,118.78,0,0,0-1-14.25H226.95"/><path class="cls-5" d="M23.18,139.34H8.34A116.9,116.9,0,0,0,11.15,154h0a117.9,117.9,0,0,0,103.73,87.79h0a117.17,117.17,0,0,0,38.1-2.92h0c3.17-.76,6.31-1.68,9.39-2.72h0a113.34,113.34,0,0,0,21.89-10h0A118.12,118.12,0,0,0,239,154H223.73a103,103,0,0,1-88.95,73.07h0q-4.85.45-9.72.45A103,103,0,0,1,23.18,139.34"/><path class="cls-6" d="M832.84,95.22H817.32v0H802v0H208.25a87.46,87.46,0,0,1,3.81,14.68h29.72l587.11,0a87.42,87.42,0,0,1,3.95-14.7"/><path class="cls-7" d="M828.64,139.34H212.06a87.46,87.46,0,0,1-3.82,14.7H832.32a87.46,87.46,0,0,1-3.68-14.7"/><path class="cls-8" d="M125.06,36.41a88.23,88.23,0,0,0,0,176.45h0a57.21,57.21,0,0,0,8-.36A88.47,88.47,0,0,0,208.23,154h0a87.46,87.46,0,0,0,3.82-14.7h-15a73.52,73.52,0,0,1-145.56-14.7h0A73.54,73.54,0,0,1,197.13,109.9h14.93a87.46,87.46,0,0,0-3.81-14.68h0a88.46,88.46,0,0,0-73-58.23h0a87.08,87.08,0,0,0-10.18-.58"/></svg>