<svg id="Ebene_1" data-name="Ebene 1" xmlns="http://www.w3.org/2000/svg" width="187.3" height="94.8" viewBox="0 0 187.3 94.8"><defs><style>.cls-1{fill:#a2a1a1;}.cls-2{fill:#888;}</style></defs><title>powered_by_dkd</title><path class="cls-1" d="M179.6,49.2a11,11,0,0,0,7.6-3.1V30.2a11,11,0,1,0-7.6,19m7.6,11.9V57.9a20.9,20.9,0,0,1-7.6,1.4,21.2,21.2,0,1,1,7.6-40.9V0H151.7s-6.8,0-6.8,6.8V61.1s0,6.8,6.8,6.8h28.8s6.8,0,6.8-6.8"/><path class="cls-1" d="M183.3,87.6a14.9,14.9,0,0,1-3.2.4c-2.5,0-3.1-.8-3.1-4.1s.5-4.1,3.1-4.1a30.3,30.3,0,0,1,3.2.2Zm4,2.3V88.3l-1.1-.2c-.3,0-.4-.1-.4-.5V73h-4v1.6l1.1.2c.3,0,.4.1.4.5v3.1a22.8,22.8,0,0,0-4.1-.4c-3.9,0-4.7,2.6-4.7,6.1s.6,6.1,4.5,6.1h1.9l1.6-1.1.7-.2c.4,0,.5.3.5.5v.8Zm-14.6,0h-3.2l-4.2-5.1a.9.9,0,0,0-.9-.5c-.5,0-.6.2-.6.7v2.7c0,.3,0,.4.4.5l1.1.2v1.6h-5.5V88.4l1.1-.2c.3,0,.4-.1.4-.5V75.3c0-.3-.1-.4-.4-.5l-1.1-.2V73h4v9.5c0,.5.2.7.6.7a1.2,1.2,0,0,0,.9-.5l4.5-4.6h2.6v1.6l-1.2.2a.8.8,0,0,0-.5.2l-3.5,3.5,3.7,4.1a.9.9,0,0,0,.6.3l1.2.3v1.5Zm-19-2.3a14.6,14.6,0,0,1-3.2.4c-2.5,0-3.1-.8-3.1-4.1s.5-4.1,3.1-4.1a30.3,30.3,0,0,1,3.2.2Zm4,2.3V88.3l-1.1-.2c-.3,0-.4-.1-.4-.5V73h-4v1.6l1.1.2c.3,0,.4.1.4.5v3.1a22.8,22.8,0,0,0-4.1-.4c-3.9,0-4.7,2.6-4.7,6.1s.6,6.1,4.5,6.1h1.9l1.6-1.1.7-.2c.4,0,.5.3.5.5v.8Z"/><path class="cls-2" d="M7.8,90.1a12.8,12.8,0,0,1-3.1-.4v2.9c0,.3,0,.4.3.4l1,.2v1.5H.9V93.2L2,93c.3,0,.3-.1.3-.4V80.9c0-.3-.1-.4-.3-.4L.9,80.3V78.8H4.2v.8a.5.5,0,0,0,.5.5l.6-.2,1.5-1.1H8.3c3.8,0,4.7,1.6,4.7,5.7S12,90.1,7.8,90.1Zm-.1-9.6a17.3,17.3,0,0,0-3,.3V88a17.5,17.5,0,0,0,2.9.2c2.4,0,3-.6,3-3.9S10.1,80.5,7.7,80.5Z"/><path class="cls-2" d="M20.8,90.1c-4.7,0-5.5-1-5.5-5.7s.8-5.7,5.5-5.7,5.5,1,5.5,5.7S25.5,90.1,20.8,90.1Zm0-9.6c-2.8,0-3.1.4-3.1,3.9s.3,3.9,3.1,3.9,3.1-.4,3.1-3.9S23.6,80.5,20.8,80.5Z"/><path class="cls-2" d="M47.7,80.4c-.4.1-.5.1-.5.4l-2.3,9.1H40.4l-1.9-9.4c0-.1-.1-.2-.2-.2l-.2.2-2,9.4H31.6l-2.4-9.1c-.1-.3-.2-.4-.5-.4l-.8-.2V78.8h4.7v1.5l-.7.2c-.3,0-.3.2-.3.5l1.4,6.6c.1.5.3.8.7.8s.6-.3.7-.8L36.3,79h4.2l1.6,8.5c.1.5.3.8.7.8s.6-.3.7-.8l1.3-6.6c0-.2,0-.4-.2-.5h-.8V78.8h4.7v1.5Z"/><path class="cls-2" d="M61.1,85.1l-4.1.2H54.5l-1-.7-.5-.2c-.3,0-.5.2-.5.5v.5a3.3,3.3,0,0,0,.6,2.1c.7.8,2.1.8,3.1.8a21,21,0,0,0,4-.5l.3,1.7a16.3,16.3,0,0,1-4.5.6c-3.8,0-6-.8-6-5.7a9.8,9.8,0,0,1,.6-3.7c.8-1.7,2.5-2.1,5.1-2.1,4.2,0,5.4,1,5.4,4.9C61.2,83.9,61.1,84.3,61.1,85.1Zm-5.3-4.7c-3.1,0-3.2.5-3.3,2.9a20,20,0,0,0,3.2.1h3C58.7,80.7,58.1,80.5,55.8,80.5Z"/><path class="cls-2" d="M72.2,80.9H70.4A24.3,24.3,0,0,0,67,81v6.8c0,.3.1.4.4.4l1,.2v1.5H63.2V88.4l1.1-.2c.3,0,.3-.1.3-.4V80.9c0-.3-.1-.4-.3-.4l-1.1-.2V78.8h3.1v1a.5.5,0,0,0,.5.5l.6-.2,1.7-1.2h3.1Z"/><path class="cls-2" d="M84.9,85.1l-4.1.2H78.2l-1-.7-.5-.2c-.3,0-.5.2-.5.5v.5a3.3,3.3,0,0,0,.6,2.1c.7.8,2.1.8,3.1.8a21,21,0,0,0,4-.5l.3,1.7a16.3,16.3,0,0,1-4.5.6c-3.8,0-6-.8-6-5.7a9.8,9.8,0,0,1,.6-3.7c.8-1.7,2.5-2.1,5.1-2.1,4.2,0,5.4,1,5.4,4.9C85,83.9,84.9,84.3,84.9,85.1Zm-5.3-4.7c-3.1,0-3.2.5-3.3,2.9a20,20,0,0,0,3.2.1h3C82.5,80.7,81.9,80.5,79.6,80.5Z"/><path class="cls-2" d="M96.1,89.9v-.8a.5.5,0,0,0-.5-.5l-.6.2L93.3,90H91.5c-3.6,0-4.2-2.4-4.2-5.7s.7-5.7,4.4-5.7a20.5,20.5,0,0,1,3.8.4V76.1c0-.3,0-.4-.3-.4l-1.1-.2V73.9h3.8V87.8c0,.3,0,.4.3.4l1.1.2v1.5Zm-.5-9.2-3-.2c-2.4,0-2.9.8-2.9,3.9s.5,3.8,2.9,3.8a13.8,13.8,0,0,0,3-.4Z"/><path class="cls-2" d="M112.4,90.1a18,18,0,0,1-4.9-.7V76.1c0-.3,0-.4-.3-.4l-1-.2V73.9h3.7v5.5c0,.4.1.5.5.5l.5-.2,1.4-1h1.3c3.8,0,4.7,1.6,4.7,5.7S117.1,90.1,112.4,90.1Zm.5-9.6a13.5,13.5,0,0,0-3,.4v7a14.6,14.6,0,0,0,2.9.3c2.4,0,2.9-.6,2.9-3.9S115.2,80.5,112.8,80.5Z"/><path class="cls-2" d="M121.3,80.9c0-.3-.1-.4-.3-.4l-1.1-.2V78.8H125v1.5l-1.1.2c-.3,0-.3.1-.3.4v4.8c0,2.2.5,2.5,2.7,2.5a11.3,11.3,0,0,0,2.4-.3v-7c0-.3-.1-.4-.3-.4l-1.1-.2V78.8h5.1v1.5l-1,.2c-.3,0-.3.1-.3.4v8.4c0,4.4-1.2,5.4-5.4,5.4a22.3,22.3,0,0,1-3.9-.4l.2-1.8a20.5,20.5,0,0,0,3.6.4c2.7,0,3.1-.5,3.1-3v-.5c0-.4-.1-.5-.5-.5l-.5.2-1.4,1h-1.2c-2.9,0-3.9-1.1-3.9-4.3Z"/></svg>