<?xml version="1.0" encoding="utf-8"?>
<!-- Generator: Adobe Illustrator 21.1.0, SVG Export Plug-In . SVG Version: 6.00 Build 0)  -->
<svg version="1.1" id="Ebene_1" xmlns="http://www.w3.org/2000/svg" xmlns:xlink="http://www.w3.org/1999/xlink" x="0px" y="0px"
	 viewBox="0 0 187.3 94.8" style="enable-background:new 0 0 187.3 94.8;" xml:space="preserve">
<style type="text/css">
	.st0{fill:#A2A1A1;}
	.st1{fill:#888888;}
	.st2{font-family:'KontrapunktBold';}
	.st3{font-size:24px;}
</style>
<title>powered_by_dkd</title>
<path class="st0" d="M179.6,49.2c2.8,0,5.6-1.1,7.6-3.1V30.2c-4.4-4.2-11.4-4-15.5,0.5c-4.2,4.4-4,11.4,0.5,15.5
	C174.1,48.1,176.8,49.2,179.6,49.2 M187.2,61.1v-3.2c-2.4,0.9-5,1.4-7.6,1.4c-11.7,0.1-21.3-9.3-21.4-21s9.3-21.3,21-21.4
	c2.8,0,5.5,0.5,8.1,1.5V0h-35.5c0,0-6.8,0-6.8,6.8v54.3c0,0,0,6.8,6.8,6.8h28.8C180.5,67.9,187.3,67.9,187.2,61.1"/>
<path class="st0" d="M183.3,87.6c-1,0.2-2.1,0.4-3.2,0.4c-2.5,0-3.1-0.8-3.1-4.1s0.5-4.1,3.1-4.1c1.1,0,2.1,0.1,3.2,0.2V87.6z
	 M187.3,89.9v-1.6l-1.1-0.2c-0.3,0-0.4-0.1-0.4-0.5V73h-4v1.6l1.1,0.2c0.3,0,0.4,0.1,0.4,0.5v3.1c-1.4-0.3-2.7-0.4-4.1-0.4
	c-3.9,0-4.7,2.6-4.7,6.1s0.6,6.1,4.5,6.1h1.9l1.6-1.1l0.7-0.2c0.4,0,0.5,0.3,0.5,0.5v0.8L187.3,89.9z M172.7,89.9h-3.2l-4.2-5.1
	c-0.2-0.3-0.5-0.5-0.9-0.5c-0.5,0-0.6,0.2-0.6,0.7v2.7c0,0.3,0,0.4,0.4,0.5l1.1,0.2V90h-5.5v-1.6l1.1-0.2c0.3,0,0.4-0.1,0.4-0.5
	V75.3c0-0.3-0.1-0.4-0.4-0.5l-1.1-0.2V73h4v9.5c0,0.5,0.2,0.7,0.6,0.7c0.4,0,0.7-0.2,0.9-0.5l4.5-4.6h2.6v1.6l-1.2,0.2
	c-0.2,0-0.4,0.1-0.5,0.2l-3.5,3.5l3.7,4.1c0.2,0.2,0.4,0.3,0.6,0.3l1.2,0.3v1.5L172.7,89.9z M153.7,87.6c-1,0.3-2.1,0.4-3.2,0.4
	c-2.5,0-3.1-0.8-3.1-4.1s0.5-4.1,3.1-4.1c1.1,0,2.1,0.1,3.2,0.2V87.6z M157.7,89.9v-1.6l-1.1-0.2c-0.3,0-0.4-0.1-0.4-0.5V73h-4v1.6
	l1.1,0.2c0.3,0,0.4,0.1,0.4,0.5v3.1c-1.4-0.3-2.7-0.4-4.1-0.4c-3.9,0-4.7,2.6-4.7,6.1s0.6,6.1,4.5,6.1h1.9l1.6-1.1l0.7-0.2
	c0.4,0,0.5,0.3,0.5,0.5v0.8L157.7,89.9z"/>
<text transform="matrix(1 0 0 1 0 89.9)" class="st1 st2 st3">p</text>
<text transform="matrix(1 0 0 1 14.1 89.9)" class="st1 st2 st3">o</text>
<text transform="matrix(1 0 0 1 27.6 89.9)" class="st1 st2 st3">w</text>
<text transform="matrix(1 0 0 1 48.9 89.9)" class="st1 st2 st3">e</text>
<text transform="matrix(1 0 0 1 62.1 89.9)" class="st1 st2 st3">r</text>
<text transform="matrix(1 0 0 1 72.7 89.9)" class="st1 st2 st3">e</text>
<text transform="matrix(1 0 0 1 86.1 89.9)" class="st1 st2 st3">d </text>
<text transform="matrix(1 0 0 1 105.4 89.9)" class="st1 st2 st3">b</text>
<text transform="matrix(1 0 0 1 119.2 89.9)" class="st1 st2 st3">y</text>
</svg>
